<svg width="22" height="20" xmlns="http://www.w3.org/2000/svg"><path d="M20.17 12.659c.36.284.455.788.229 1.202l-1.744 3.017a.928.928 0 0 1-1.16.417l-1.922-.772a7.193 7.193 0 0 1-1.093.637l-.292 2.035a.926.926 0 0 1-.925.805h-3.5a.924.924 0 0 1-.924-.797l-.292-2.042a6.872 6.872 0 0 1-1.096-.637l-1.936.777c-.426.155-.92-.013-1.137-.412l-1.756-3.038a.942.942 0 0 1 .236-1.194l1.626-1.271a6.508 6.508 0 0 1-.033-.636c0-.203.011-.41.033-.636L2.856 8.841a.93.93 0 0 1-.228-1.202l1.744-3.017a.928.928 0 0 1 1.159-.417l1.922.772a7.193 7.193 0 0 1 1.093-.637l.292-2.035a.926.926 0 0 1 .925-.805h3.5c.468 0 .867.342.924.797l.293 2.042c.381.176.746.389 1.096.637l1.935-.777c.426-.155.92.013 1.138.412l1.756 3.038a.942.942 0 0 1-.236 1.194l-1.627 1.271c.023.226.034.429.034.636 0 .207-.011.41-.034.636l1.628 1.273zm-2.687-.832l.035-.282c.039-.31.058-.552.058-.795s-.019-.485-.058-.795l-.035-.282.223-.174 1.8-1.407-1.697-2.935-2.384.957-.227-.174a5.891 5.891 0 0 0-1.363-.791l-.265-.109-.04-.283-.324-2.257H9.82l-.365 2.54-.264.109c-.464.19-.915.455-1.369.795l-.225.169-.261-.105-2.12-.851-1.696 2.935 2.022 1.581-.035.282a6.376 6.376 0 0 0-.057.795c0 .238.019.491.057.795l.035.282L5.32 12l-1.8 1.407 1.697 2.935 2.385-.957.226.174c.43.33.882.594 1.364.791l.264.109.04.283L9.82 19h3.386l.364-2.54.265-.109c.463-.19.915-.455 1.368-.795l.225-.169.262.105 2.119.851 1.697-2.935-2.023-1.581zm-5.97 1.486a2.566 2.566 0 0 0 2.563-2.563 2.566 2.566 0 0 0-2.563-2.563 2.566 2.566 0 0 0-2.562 2.563 2.566 2.566 0 0 0 2.562 2.563zm0 1a3.566 3.566 0 0 1-3.562-3.563 3.566 3.566 0 0 1 3.562-3.563 3.566 3.566 0 0 1 3.563 3.563 3.566 3.566 0 0 1-3.563 3.563z" fill="#4A4A4A" fill-rule="nonzero"/></svg>