<svg width="16" height="16" xmlns="http://www.w3.org/2000/svg" xmlns:xlink="http://www.w3.org/1999/xlink"><defs><path d="M15.226 5.98l-.115.828.059.847c.01.05.018.1.022.151l.35 4.928c.034.53-.352.96-.863.96H1.277c-.51 0-.897-.43-.863-.96l.347-4.928c.004-.051.012-.101.023-.15l.043-.85-.083-.593a1.135 1.135 0 0 1-.094-.325L.008.959C-.06.43.323 0 .864 0h14.212c.54 0 .924.43.856.96l-.69 4.925a1.26 1.26 0 0 1-.016.094z" id="a"/><linearGradient x1="16.617%" y1="24.008%" x2="98.247%" y2="34.773%" id="c"><stop stop-color="#3C77E3" offset="0%"/><stop stop-color="#3582F7" offset="100%"/></linearGradient></defs><g fill="none" fill-rule="evenodd"><rect fill="#D8D8D8" x=".824" width="14.283" height="3.971" rx="1"/><g transform="translate(0 2.26)"><mask id="b" fill="#fff"><use xlink:href="#a"/></mask><use fill="#2B61D4" xlink:href="#a"/><path fill="#3D87F9" mask="url(#b)" d="M-.824 6.778h17.373v7.531H-.824z"/></g><path d="M.824 9.056l6.886 6.897h6.911s1.042-.17.9-1.243c-.142-1.074-.392-5.672-.392-5.672L.824 9.056z" fill="url(#c)"/><ellipse fill="#FFF" cx="4.567" cy="1.13" rx="1" ry="1"/><ellipse fill="#FFF" cx="11.365" cy="1.13" rx="1" ry="1"/><path d="M3.555 7.505c0-.575.403-1.812 2.065-1.812 1.663 0 1.953 1.228 1.953 1.78 0 .55-.208 1.107-.977 1.516 0 .046 1.107.268 1.107 1.59 0 1.321-1.181 1.922-2.113 1.922-.932 0-2.082-.495-2.082-1.834.01 0 .469-.031.82-.031.024.321.129 1.18 1.25 1.18 1.122 0 1.301-.841 1.301-1.207 0-.366-.214-1.277-1.284-1.277-.47.028-.721 0-.721 0v-.629s.302-.004.7-.004c.398 0 1.225-.32 1.225-1.161 0-.84-.588-1.222-1.144-1.222-.556 0-1.304.282-1.304 1.177.02.012-.77.045-.796.012zm5.272-.978l2.397-.846h.147v6.784h-.856V6.697l-1.685.572" fill="#FFF"/></g></svg>