<svg width="14" height="16" xmlns="http://www.w3.org/2000/svg"><g fill="none" fill-rule="evenodd"><path d="M6.399 15.996c-.22 0-2.436-.002-2.576 0-.14.003-.269-.04-.34-.136-.072-.096-.083-.247-.06-.395l.54-3.367.566-3.39.737-4.499s.025-.291.224-.46c.2-.17.447-.17.565-.17l3.982.003s.784.012 1.392.12c.608.107 1.411.393 1.866.877.455.483.704 1.147.704 2.003 0 .856-.369 1.924-.41 2.047-.043.122-.403.996-.901 1.485-.498.49-1.101.976-2.125 1.226s-1.856.224-1.856.224H8.29c-.135-.002-.337.03-.475.194-.139.164-.177.292-.212.532-.036.239-.525 3.23-.525 3.23s-.04.218-.208.336c-.169.118-.25.14-.47.14z" fill="#009BE1"/><path d="M3.629 14.226H.415s-.168 0-.288-.139a.478.478 0 0 1-.097-.398c.016-.092.91-5.612.91-5.612L2.157.637S2.195.36 2.37.223a.828.828 0 0 1 .523-.2c.178 0 5.342-.009 5.47 0 .126.008 1.15.09 1.515.171.364.082 1.133.295 1.573.637.44.342.775.69.993 1.19.219.502.312 1.324.176 2.09-.137.767-.543 2.09-1.154 2.84-.61.75-1.502 1.39-2.501 1.644-1 .254-1.652.317-2.675.317s-1.151-.004-1.253-.004a.626.626 0 0 0-.459.226c-.133.174-.181.308-.248.675-.066.366-.702 4.417-.702 4.417z" fill="#002C8A" style="mix-blend-mode:multiply"/></g></svg>