<svg width="22" height="16" xmlns="http://www.w3.org/2000/svg"><path d="M11.798 13.554C11.159 14.998 9.767 16 8.152 16c-1.678 0-3.116-1.082-3.717-2.62-.236.05-.48.076-.73.076C1.66 13.456 0 11.711 0 9.56c0-1.412.714-2.65 1.784-3.333a4.75 4.75 0 0 1-.302-1.672C1.482 2.039 3.421 0 5.812 0c1.36 0 2.574.66 3.368 1.692a3.795 3.795 0 0 1 2.756-1.2c1.45 0 2.714.831 3.386 2.065a4.544 4.544 0 0 1 1.92-.424C19.868 2.133 22 4.374 22 7.138c0 2.765-2.13 5.006-4.759 5.006a4.56 4.56 0 0 1-.834-.077c-.667 1.083-1.826 1.8-3.145 1.8-.52 0-1.014-.112-1.464-.313z" fill="#00A0DF" fill-rule="evenodd"/></svg>