<svg width="17" height="17" xmlns="http://www.w3.org/2000/svg"><path d="M5.03 7.06L1.596 3.628s.396-.636.912-1.151C3.024 1.96 3.623 1.6 3.623 1.6l3.423 3.422V.17S7.724 0 8.453 0c.73 0 1.459.169 1.459.169v4.877l3.445-3.445s.6.36 1.115.876a7.41 7.41 0 0 1 .912 1.15L11.952 7.06h4.879S17 7.738 17 8.467a7.41 7.41 0 0 1-.169 1.459h-4.902l3.455 3.455s-.396.635-.912 1.151c-.515.516-1.115.876-1.115.876l-3.445-3.445v4.854s-.73.169-1.459.169c-.729 0-1.407-.17-1.407-.17v-4.83l-3.423 3.422s-.599-.36-1.114-.876c-.516-.516-.912-1.15-.912-1.15l3.455-3.456H.169S0 9.196 0 8.467C0 7.738.169 7.06.169 7.06h4.86zm1.637-.342s-.295.897-.295 1.793c0 .897.295 1.799.295 1.799s.887.296 1.775.296c.887 0 1.807-.296 1.807-.296s.337-.934.337-1.868-.337-1.724-.337-1.724-.884-.338-1.768-.338-1.814.338-1.814.338z" fill="#FF4A00" fill-rule="evenodd"/></svg>