<?xml version="1.0" encoding="UTF-8"?>
<svg width="19px" height="19px" viewBox="0 0 19 19" version="1.1" xmlns="http://www.w3.org/2000/svg" xmlns:xlink="http://www.w3.org/1999/xlink">
    <!-- Generator: Sketch 49.1 (51147) - http://www.bohemiancoding.com/sketch -->
    <title>icon / video</title>
    <desc>Created with Sketch.</desc>
    <defs></defs>
    <g id="icon-/-video" stroke="none" stroke-width="1" fill="none" fill-rule="evenodd">
        <g id="video" transform="translate(1.000000, 1.000000)" fill="#006BB1">
            <path d="M8.5,17.5 C3.52943725,17.5 -0.5,13.4705627 -0.5,8.5 C-0.5,3.52943725 3.52943725,-0.5 8.5,-0.5 C13.4705627,-0.5 17.5,3.52943725 17.5,8.5 C17.5,13.4705627 13.4705627,17.5 8.5,17.5 Z M8.5,16.5 C12.918278,16.5 16.5,12.918278 16.5,8.5 C16.5,4.081722 12.918278,0.5 8.5,0.5 C4.081722,0.5 0.5,4.081722 0.5,8.5 C0.5,12.918278 4.081722,16.5 8.5,16.5 Z" id="Oval" fill-rule="nonzero"></path>
            <polygon id="Triangle" points="12.572998 8.81188965 6.04211426 12.6437988 6 5"></polygon>
        </g>
    </g>
</svg>