<svg width="52" height="52" xmlns="http://www.w3.org/2000/svg"><g fill="none" fill-rule="evenodd"><path d="M26 52c-1.006 0-1.998-.057-2.974-.168l.113-.994c.945.108 1.9.162 2.861.162v1zm0 0v-1a25.2 25.2 0 0 0 3.836-.292l.153.988A26.2 26.2 0 0 1 26 52z" fill="#979797" fill-rule="nonzero"/><path d="M33.916 50.779l-.309-.951a25.2 25.2 0 0 0 3.559-1.464l.45.893a26.2 26.2 0 0 1-3.7 1.522z" fill="#979797"/><path d="M41.042 47.185l-.574-.819a25.2 25.2 0 0 0 2.975-2.44l.691.723a26.2 26.2 0 0 1-3.092 2.536zM46.771 41.65l-.799-.603a25.2 25.2 0 0 0 2.076-3.24l.88.474a26.2 26.2 0 0 1-2.157 3.368zM50.572 34.55l-.945-.326a25.2 25.2 0 0 0 .972-3.723l.984.178a26.2 26.2 0 0 1-1.01 3.87zM51.965 26.773l-1-.035a25.2 25.2 0 0 0-.158-3.845l.993-.117a26.2 26.2 0 0 1 .165 3.997zM51.004 18.848l-.961.276a25.2 25.2 0 0 0-1.339-3.607l.908-.42a26.2 26.2 0 0 1 1.392 3.751zM47.639 11.584l-.83.56a25.2 25.2 0 0 0-2.387-3.017l.734-.68a26.2 26.2 0 0 1 2.483 3.137zM42.278 5.73l-.63.777a25.2 25.2 0 0 0-3.165-2.187l.504-.864a26.2 26.2 0 0 1 3.29 2.274zM35.297 1.719l-.358.934a25.2 25.2 0 0 0-3.687-1.102l.213-.978a26.2 26.2 0 0 1 3.832 1.146zM27.544.04l-.052.998a25.2 25.2 0 0 0-3.847.091l-.1-.995A26.2 26.2 0 0 1 27.544.04zM19.612.794l.242.97a25.2 25.2 0 0 0-3.651 1.212l-.387-.922a26.2 26.2 0 0 1 3.796-1.26zM12.253 3.934l.53.848a25.2 25.2 0 0 0-3.099 2.28l-.653-.757a26.2 26.2 0 0 1 3.222-2.371zM6.241 9.147l.755.656A25.2 25.2 0 0 0 4.7 12.89l-.846-.533a26.2 26.2 0 0 1 2.387-3.21zM2.018 15.97l.92.391a25.2 25.2 0 0 0-1.23 3.646L.74 19.76a26.2 26.2 0 0 1 1.279-3.79zM.08 23.798l.996.087a25.2 25.2 0 0 0-.043 3.847l-.998.066a26.2 26.2 0 0 1 .045-4zM.59 31.63l.974-.225a25.2 25.2 0 0 0 1.148 3.672l-.93.37A26.2 26.2 0 0 1 .59 31.63zM3.526 39.067l.866-.5a25.2 25.2 0 0 0 2.172 3.176l-.78.626a26.2 26.2 0 0 1-2.258-3.302zM8.528 45.26l.67-.743a25.2 25.2 0 0 0 3.046 2.35l-.548.836a26.2 26.2 0 0 1-3.168-2.443zM15.247 49.687l.406-.914a25.2 25.2 0 0 0 3.624 1.293l-.263.965a26.2 26.2 0 0 1-3.767-1.344z" fill="#9B9B9B"/><path d="M25.698 22h-1.231l-5.072-7.789h-.05c.067.914.101 1.752.101 2.514V22h-.997v-9.28h1.22l5.058 7.757h.051a70.535 70.535 0 0 1-.057-1.102 19.11 19.11 0 0 1-.032-1.33V12.72h1.01V22zm8.398-3.485c0 1.134-.285 2.02-.856 2.657-.572.637-1.361.955-2.368.955-.622 0-1.174-.146-1.657-.438a2.89 2.89 0 0 1-1.117-1.257c-.262-.546-.394-1.185-.394-1.917 0-1.134.284-2.017.85-2.65.568-.633 1.355-.949 2.362-.949.974 0 1.747.324 2.32.971.574.648.86 1.524.86 2.628zm-5.3 0c0 .889.178 1.566.533 2.031.356.466.878.699 1.568.699.69 0 1.214-.232 1.571-.695.358-.464.537-1.142.537-2.035 0-.884-.18-1.556-.537-2.015-.357-.46-.885-.689-1.583-.689-.69 0-1.21.226-1.562.68-.351.452-.527 1.127-.527 2.024zM9.658 35H8.604v-6.957h1.054V35zm-1.143-8.842c0-.241.06-.418.178-.53a.621.621 0 0 1 .444-.169.62.62 0 0 1 .438.172c.123.114.185.29.185.527 0 .237-.062.413-.185.53a.615.615 0 0 1-.438.174.609.609 0 0 1-.444-.174c-.118-.117-.178-.293-.178-.53zM20.76 35v-4.526c0-.554-.118-.97-.355-1.247-.237-.277-.606-.416-1.105-.416-.656 0-1.14.188-1.454.565-.313.377-.47.956-.47 1.74V35h-1.053v-4.526c0-.554-.118-.97-.355-1.247-.237-.277-.608-.416-1.111-.416-.66 0-1.144.198-1.45.594-.308.395-.461 1.044-.461 1.945V35h-1.054v-6.957h.857l.172.952h.05a2.07 2.07 0 0 1 .841-.793 2.57 2.57 0 0 1 1.216-.286c1.088 0 1.799.394 2.133 1.18h.05c.208-.363.508-.651.902-.863a2.797 2.797 0 0 1 1.346-.317c.787 0 1.376.202 1.768.606.391.404.587 1.05.587 1.94V35H20.76zm7.503 0l-.21-.99h-.05c-.347.436-.693.73-1.038.885-.345.155-.776.232-1.292.232-.69 0-1.23-.178-1.622-.533-.391-.356-.587-.861-.587-1.517 0-1.405 1.124-2.142 3.37-2.21l1.181-.037v-.432c0-.546-.117-.949-.352-1.21-.235-.26-.61-.39-1.127-.39-.58 0-1.235.178-1.967.534l-.324-.807a4.951 4.951 0 0 1 1.127-.438 4.88 4.88 0 0 1 1.228-.158c.83 0 1.444.184 1.844.552.4.368.6.958.6 1.771V35h-.781zm-2.38-.743c.655 0 1.17-.18 1.545-.54.375-.359.562-.863.562-1.51v-.628l-1.054.044c-.838.03-1.442.16-1.812.39-.37.231-.555.59-.555 1.076 0 .381.115.671.346.87.23.199.553.298.968.298zm11.025-6.214v.666l-1.288.153c.118.148.224.342.317.58.093.24.14.51.14.81 0 .681-.233 1.225-.698 1.631-.466.407-1.105.61-1.917.61-.208 0-.402-.017-.584-.051-.449.237-.673.535-.673.895 0 .19.078.331.235.422.156.091.425.137.806.137h1.231c.754 0 1.332.158 1.736.476.405.317.607.778.607 1.383 0 .77-.31 1.358-.927 1.762-.618.404-1.52.606-2.704.606-.91 0-1.612-.17-2.105-.508-.493-.338-.739-.816-.739-1.434 0-.424.135-.79.406-1.098.271-.31.652-.519 1.143-.629a1.102 1.102 0 0 1-.448-.374.991.991 0 0 1-.18-.59c0-.255.067-.477.203-.667.135-.19.349-.375.64-.552a1.88 1.88 0 0 1-.879-.756 2.22 2.22 0 0 1-.34-1.219c0-.761.23-1.348.686-1.761.457-.413 1.105-.619 1.943-.619.364 0 .692.042.984.127h2.405zm-5.547 8.125c0 .377.158.662.476.857.317.195.772.292 1.364.292.885 0 1.54-.132 1.965-.397.425-.264.638-.623.638-1.076 0-.376-.116-.638-.35-.784-.232-.146-.67-.219-1.313-.219h-1.263c-.479 0-.85.115-1.118.343-.266.229-.4.557-.4.984zm.57-5.897c0 .487.138.855.413 1.104.276.25.659.375 1.15.375 1.028 0 1.542-.5 1.542-1.498 0-1.045-.52-1.568-1.562-1.568-.495 0-.876.133-1.142.4-.267.267-.4.662-.4 1.187zm9.345 4.856c-1.029 0-1.84-.313-2.435-.94-.594-.626-.892-1.495-.892-2.608 0-1.122.277-2.013.829-2.673.552-.66 1.294-.99 2.225-.99.871 0 1.561.287 2.069.86.508.574.762 1.33.762 2.27v.666H39.04c.021.817.228 1.437.62 1.86.39.423.942.635 1.653.635.749 0 1.49-.157 2.221-.47v.94c-.372.16-.724.275-1.056.345a5.94 5.94 0 0 1-1.203.105zm-.286-6.329c-.559 0-1.004.182-1.336.546-.332.364-.528.868-.587 1.511h3.637c0-.664-.148-1.173-.444-1.527-.297-.353-.72-.53-1.27-.53z" fill="#333"/></g></svg>