<?xml version="1.0" encoding="UTF-8"?>
<svg width="15px" height="15px" viewBox="0 0 15 15" version="1.1" xmlns="http://www.w3.org/2000/svg" xmlns:xlink="http://www.w3.org/1999/xlink">
    <!-- Generator: Sketch 49.1 (51147) - http://www.bohemiancoding.com/sketch -->
    <title>icon / Help</title>
    <desc>Created with Sketch.</desc>
    <defs></defs>
    <g id="icon-/-Help" stroke="none" stroke-width="1" fill="none" fill-rule="evenodd">
        <g id="Help" transform="translate(0.000000, -1.000000)" fill="#006BB1">
            <path d="M1,2 L1,15 L14,15 L14,2 L1,2 Z M0,1 L15,1 L15,16 L0,16 L0,1 Z" id="Rectangle" fill-rule="nonzero"></path>
            <path d="M6.6171875,10.1582031 L6.6171875,9.72460938 C6.6171875,9.3496075 6.69726482,9.02343889 6.85742188,8.74609375 C7.01757893,8.46874861 7.31054475,8.17382969 7.73632812,7.86132812 C8.14648643,7.56835791 8.41699153,7.33007904 8.54785156,7.14648438 C8.67871159,6.96288971 8.74414062,6.75781363 8.74414062,6.53125 C8.74414062,6.27734248 8.65039156,6.08398504 8.46289062,5.95117188 C8.27538969,5.81835871 8.01367355,5.75195312 7.67773438,5.75195312 C7.09179395,5.75195312 6.42383187,5.94335746 5.67382812,6.32617188 L5.03515625,5.04296875 C5.90625436,4.55468506 6.83007324,4.31054688 7.80664062,4.31054688 C8.61133215,4.31054688 9.25097419,4.50390432 9.72558594,4.890625 C10.2001977,5.27734568 10.4375,5.79296553 10.4375,6.4375 C10.4375,6.86718965 10.3398447,7.23827969 10.1445312,7.55078125 C9.94921777,7.86328281 9.57812773,8.2148418 9.03125,8.60546875 C8.65624813,8.88281389 8.41894581,9.09374928 8.31933594,9.23828125 C8.21972606,9.38281322 8.16992188,9.57226445 8.16992188,9.80664062 L8.16992188,10.1582031 L6.6171875,10.1582031 Z M6.4296875,12.1621094 C6.4296875,11.8339827 6.51757725,11.5859383 6.69335938,11.4179688 C6.8691415,11.2499992 7.12499832,11.1660156 7.4609375,11.1660156 C7.78515787,11.1660156 8.03613192,11.2519523 8.21386719,11.4238281 C8.39160245,11.595704 8.48046875,11.8417953 8.48046875,12.1621094 C8.48046875,12.4707047 8.3906259,12.7138663 8.2109375,12.8916016 C8.0312491,13.0693368 7.7812516,13.1582031 7.4609375,13.1582031 C7.13281086,13.1582031 6.87890715,13.0712899 6.69921875,12.8974609 C6.51953035,12.7236319 6.4296875,12.4785172 6.4296875,12.1621094 Z" id="?"></path>
        </g>
    </g>
</svg>